<?xml version="1.0" encoding="UTF-8"?>
<svg xmlns="http://www.w3.org/2000/svg" version="1.1" width="100" height="100" viewBox="0 0 100 100"><rect x="0" y="0" width="100" height="100" fill="#ffffff"/><g transform="scale(3.03)"><g transform="translate(0,0)"><path fill-rule="evenodd" d="M9 0L9 1L8 1L8 2L9 2L9 3L8 3L8 4L10 4L10 7L11 7L11 4L12 4L12 5L13 5L13 6L12 6L12 9L13 9L13 8L14 8L14 9L15 9L15 11L14 11L14 12L16 12L16 14L15 14L15 13L12 13L12 11L13 11L13 10L11 10L11 11L10 11L10 9L11 9L11 8L6 8L6 9L5 9L5 8L0 8L0 9L2 9L2 10L1 10L1 11L0 11L0 13L2 13L2 14L1 14L1 15L2 15L2 16L0 16L0 18L1 18L1 19L0 19L0 25L1 25L1 22L2 22L2 19L3 19L3 18L4 18L4 21L3 21L3 22L4 22L4 21L5 21L5 23L2 23L2 25L4 25L4 24L5 24L5 25L8 25L8 27L9 27L9 28L8 28L8 33L9 33L9 32L10 32L10 31L9 31L9 30L11 30L11 29L12 29L12 30L13 30L13 31L12 31L12 33L13 33L13 32L14 32L14 33L19 33L19 32L20 32L20 31L19 31L19 30L20 30L20 29L21 29L21 28L22 28L22 29L23 29L23 28L24 28L24 29L25 29L25 30L24 30L24 31L23 31L23 30L22 30L22 31L21 31L21 33L27 33L27 32L26 32L26 29L28 29L28 30L30 30L30 31L28 31L28 33L29 33L29 32L30 32L30 33L32 33L32 32L31 32L31 30L33 30L33 28L31 28L31 27L32 27L32 26L29 26L29 25L30 25L30 24L31 24L31 23L32 23L32 24L33 24L33 23L32 23L32 22L33 22L33 21L32 21L32 20L33 20L33 19L32 19L32 17L33 17L33 16L32 16L32 17L31 17L31 15L32 15L32 14L31 14L31 15L30 15L30 14L27 14L27 13L29 13L29 12L30 12L30 13L31 13L31 12L32 12L32 10L33 10L33 9L32 9L32 8L31 8L31 9L30 9L30 8L29 8L29 10L30 10L30 11L28 11L28 12L27 12L27 10L26 10L26 11L25 11L25 13L26 13L26 14L24 14L24 13L23 13L23 10L22 10L22 9L24 9L24 8L25 8L25 9L26 9L26 8L25 8L25 5L24 5L24 7L23 7L23 6L22 6L22 7L21 7L21 5L22 5L22 4L23 4L23 3L22 3L22 2L20 2L20 3L22 3L22 4L17 4L17 3L15 3L15 2L16 2L16 1L17 1L17 0L16 0L16 1L14 1L14 0L13 0L13 1L11 1L11 2L10 2L10 0ZM19 0L19 1L18 1L18 3L19 3L19 1L21 1L21 0ZM23 0L23 1L24 1L24 0ZM12 2L12 4L14 4L14 5L17 5L17 4L15 4L15 3L14 3L14 2ZM24 2L24 4L25 4L25 2ZM10 3L10 4L11 4L11 3ZM8 5L8 7L9 7L9 5ZM18 5L18 6L17 6L17 9L18 9L18 10L17 10L17 11L16 11L16 12L17 12L17 14L16 14L16 15L17 15L17 17L19 17L19 18L18 18L18 19L16 19L16 21L15 21L15 20L14 20L14 19L15 19L15 17L14 17L14 16L15 16L15 15L14 15L14 16L13 16L13 17L12 17L12 15L13 15L13 14L12 14L12 13L11 13L11 12L10 12L10 13L9 13L9 12L8 12L8 11L6 11L6 10L8 10L8 9L6 9L6 10L5 10L5 9L4 9L4 10L3 10L3 12L2 12L2 13L3 13L3 15L5 15L5 16L3 16L3 17L4 17L4 18L5 18L5 19L6 19L6 20L7 20L7 21L6 21L6 22L7 22L7 21L8 21L8 23L6 23L6 24L8 24L8 23L9 23L9 24L10 24L10 28L11 28L11 26L13 26L13 27L12 27L12 29L15 29L15 30L17 30L17 32L18 32L18 30L19 30L19 29L20 29L20 28L21 28L21 27L24 27L24 24L25 24L25 23L27 23L27 22L25 22L25 21L28 21L28 23L31 23L31 22L32 22L32 21L31 21L31 20L29 20L29 17L30 17L30 16L29 16L29 15L27 15L27 14L26 14L26 15L25 15L25 16L23 16L23 15L24 15L24 14L22 14L22 13L20 13L20 12L21 12L21 9L20 9L20 10L19 10L19 8L21 8L21 7L20 7L20 5ZM13 6L13 7L14 7L14 8L16 8L16 6L15 6L15 7L14 7L14 6ZM18 6L18 8L19 8L19 6ZM27 8L27 9L28 9L28 8ZM18 10L18 12L20 12L20 11L19 11L19 10ZM5 11L5 13L7 13L7 14L5 14L5 15L7 15L7 16L5 16L5 17L7 17L7 18L6 18L6 19L7 19L7 18L9 18L9 19L8 19L8 21L9 21L9 19L11 19L11 21L10 21L10 24L11 24L11 21L12 21L12 22L13 22L13 23L12 23L12 25L13 25L13 24L14 24L14 25L15 25L15 27L14 27L14 28L15 28L15 29L17 29L17 30L18 30L18 29L19 29L19 28L20 28L20 27L19 27L19 28L17 28L17 25L18 25L18 26L19 26L19 25L20 25L20 26L23 26L23 24L24 24L24 23L25 23L25 22L24 22L24 21L23 21L23 19L22 19L22 17L23 17L23 18L24 18L24 19L25 19L25 20L26 20L26 19L28 19L28 17L29 17L29 16L28 16L28 17L25 17L25 18L24 18L24 17L23 17L23 16L22 16L22 14L21 14L21 16L19 16L19 17L20 17L20 19L18 19L18 20L17 20L17 21L16 21L16 22L15 22L15 21L12 21L12 19L13 19L13 18L9 18L9 16L8 16L8 14L9 14L9 15L10 15L10 17L11 17L11 15L10 15L10 14L11 14L11 13L10 13L10 14L9 14L9 13L8 13L8 12L6 12L6 11ZM3 12L3 13L4 13L4 12ZM26 12L26 13L27 13L27 12ZM18 13L18 14L17 14L17 15L19 15L19 14L20 14L20 13ZM26 15L26 16L27 16L27 15ZM21 16L21 17L22 17L22 16ZM25 18L25 19L26 19L26 18ZM20 19L20 21L17 21L17 22L16 22L16 24L15 24L15 23L14 23L14 24L15 24L15 25L16 25L16 24L18 24L18 25L19 25L19 24L20 24L20 25L21 25L21 23L24 23L24 22L23 22L23 21L22 21L22 22L21 22L21 23L20 23L20 21L21 21L21 19ZM28 20L28 21L29 21L29 22L30 22L30 21L29 21L29 20ZM17 22L17 23L19 23L19 22ZM25 25L25 28L28 28L28 25ZM26 26L26 27L27 27L27 26ZM15 27L15 28L16 28L16 27ZM29 28L29 29L31 29L31 28ZM14 31L14 32L15 32L15 31ZM0 0L0 7L7 7L7 0ZM1 1L1 6L6 6L6 1ZM2 2L2 5L5 5L5 2ZM26 0L26 7L33 7L33 0ZM27 1L27 6L32 6L32 1ZM28 2L28 5L31 5L31 2ZM0 26L0 33L7 33L7 26ZM1 27L1 32L6 32L6 27ZM2 28L2 31L5 31L5 28Z" fill="#000000"/></g></g></svg>
