<?xml version="1.0" encoding="UTF-8"?>
<svg xmlns="http://www.w3.org/2000/svg" version="1.1" width="100" height="100" viewBox="0 0 100 100"><rect x="0" y="0" width="100" height="100" fill="#ffffff"/><g transform="scale(3.448)"><g transform="translate(0,0)"><path fill-rule="evenodd" d="M9 0L9 1L11 1L11 2L9 2L9 3L8 3L8 5L9 5L9 6L8 6L8 7L9 7L9 9L10 9L10 10L8 10L8 11L10 11L10 12L8 12L8 13L9 13L9 17L7 17L7 16L8 16L8 14L6 14L6 13L7 13L7 12L5 12L5 11L7 11L7 10L5 10L5 9L8 9L8 8L5 8L5 9L2 9L2 8L0 8L0 12L2 12L2 11L3 11L3 12L4 12L4 15L2 15L2 14L3 14L3 13L1 13L1 14L0 14L0 21L1 21L1 19L2 19L2 21L3 21L3 19L4 19L4 20L5 20L5 19L7 19L7 18L8 18L8 19L9 19L9 20L11 20L11 21L12 21L12 22L13 22L13 23L12 23L12 24L11 24L11 22L10 22L10 23L9 23L9 21L8 21L8 24L9 24L9 25L10 25L10 26L9 26L9 27L8 27L8 29L9 29L9 28L11 28L11 29L12 29L12 27L13 27L13 26L11 26L11 25L14 25L14 23L16 23L16 24L15 24L15 27L16 27L16 26L18 26L18 28L15 28L15 29L19 29L19 28L20 28L20 27L21 27L21 29L22 29L22 28L23 28L23 29L24 29L24 27L25 27L25 28L26 28L26 29L27 29L27 27L28 27L28 28L29 28L29 27L28 27L28 26L29 26L29 23L27 23L27 22L26 22L26 21L29 21L29 20L26 20L26 21L25 21L25 19L24 19L24 20L23 20L23 18L28 18L28 19L29 19L29 17L27 17L27 14L29 14L29 12L28 12L28 13L26 13L26 17L21 17L21 16L22 16L22 15L24 15L24 16L25 16L25 13L24 13L24 11L25 11L25 9L26 9L26 10L28 10L28 9L26 9L26 8L24 8L24 9L23 9L23 10L21 10L21 8L20 8L20 9L18 9L18 8L17 8L17 6L18 6L18 7L19 7L19 6L18 6L18 5L20 5L20 4L21 4L21 1L20 1L20 2L19 2L19 1L18 1L18 0L17 0L17 1L16 1L16 0L15 0L15 1L14 1L14 0L13 0L13 1L12 1L12 0ZM15 1L15 2L16 2L16 1ZM17 1L17 3L18 3L18 1ZM12 2L12 4L11 4L11 7L10 7L10 6L9 6L9 7L10 7L10 8L11 8L11 10L10 10L10 11L11 11L11 10L13 10L13 11L12 11L12 12L11 12L11 14L10 14L10 15L11 15L11 16L10 16L10 18L9 18L9 19L10 19L10 18L11 18L11 19L12 19L12 21L14 21L14 22L16 22L16 23L17 23L17 24L18 24L18 25L19 25L19 27L20 27L20 25L19 25L19 24L20 24L20 23L18 23L18 22L19 22L19 20L21 20L21 19L19 19L19 17L20 17L20 18L21 18L21 17L20 17L20 15L22 15L22 12L23 12L23 11L24 11L24 10L23 10L23 11L21 11L21 10L17 10L17 8L16 8L16 10L17 10L17 11L15 11L15 13L14 13L14 14L15 14L15 13L16 13L16 14L17 14L17 16L18 16L18 17L17 17L17 18L16 18L16 15L15 15L15 17L14 17L14 16L13 16L13 17L12 17L12 15L13 15L13 14L12 14L12 13L13 13L13 12L14 12L14 10L15 10L15 9L14 9L14 4L13 4L13 3L14 3L14 2ZM9 3L9 5L10 5L10 3ZM15 3L15 4L16 4L16 3ZM12 4L12 5L13 5L13 4ZM15 5L15 7L16 7L16 6L17 6L17 5ZM12 6L12 9L13 9L13 6ZM20 6L20 7L21 7L21 6ZM1 9L1 10L2 10L2 9ZM3 10L3 11L5 11L5 10ZM18 11L18 12L17 12L17 14L18 14L18 16L19 16L19 14L20 14L20 12L19 12L19 11ZM18 12L18 14L19 14L19 12ZM5 15L5 16L4 16L4 17L5 17L5 18L4 18L4 19L5 19L5 18L7 18L7 17L6 17L6 16L7 16L7 15ZM28 15L28 16L29 16L29 15ZM2 16L2 17L1 17L1 18L3 18L3 16ZM12 18L12 19L14 19L14 20L15 20L15 21L16 21L16 20L17 20L17 22L18 22L18 20L19 20L19 19L18 19L18 20L17 20L17 19L16 19L16 18ZM6 20L6 21L7 21L7 20ZM21 21L21 24L24 24L24 21ZM22 22L22 23L23 23L23 22ZM26 23L26 25L27 25L27 26L25 26L25 25L22 25L22 26L21 26L21 27L22 27L22 26L25 26L25 27L27 27L27 26L28 26L28 24L27 24L27 23ZM10 24L10 25L11 25L11 24ZM10 26L10 27L11 27L11 26ZM0 0L0 7L7 7L7 0ZM1 1L1 6L6 6L6 1ZM2 2L2 5L5 5L5 2ZM22 0L22 7L29 7L29 0ZM23 1L23 6L28 6L28 1ZM24 2L24 5L27 5L27 2ZM0 22L0 29L7 29L7 22ZM1 23L1 28L6 28L6 23ZM2 24L2 27L5 27L5 24Z" fill="#000000"/></g></g></svg>
