<?xml version="1.0" encoding="UTF-8"?>
<svg xmlns="http://www.w3.org/2000/svg" version="1.1" width="100" height="100" viewBox="0 0 100 100"><rect x="0" y="0" width="100" height="100" fill="#ffffff"/><g transform="scale(3.03)"><g transform="translate(0,0)"><path fill-rule="evenodd" d="M8 0L8 1L11 1L11 3L10 3L10 2L9 2L9 3L10 3L10 5L9 5L9 6L8 6L8 8L9 8L9 9L7 9L7 8L6 8L6 9L7 9L7 10L5 10L5 8L3 8L3 9L2 9L2 8L0 8L0 9L2 9L2 10L4 10L4 11L3 11L3 13L2 13L2 11L1 11L1 10L0 10L0 11L1 11L1 15L0 15L0 17L1 17L1 19L2 19L2 20L3 20L3 21L4 21L4 22L3 22L3 24L1 24L1 20L0 20L0 25L3 25L3 24L4 24L4 25L5 25L5 24L6 24L6 25L8 25L8 26L9 26L9 25L10 25L10 26L11 26L11 28L8 28L8 30L9 30L9 31L8 31L8 33L9 33L9 31L10 31L10 33L11 33L11 31L12 31L12 33L15 33L15 31L16 31L16 33L18 33L18 32L17 32L17 30L16 30L16 29L15 29L15 28L14 28L14 29L11 29L11 28L12 28L12 27L14 27L14 26L15 26L15 27L16 27L16 28L17 28L17 29L18 29L18 30L19 30L19 33L22 33L22 32L21 32L21 31L20 31L20 30L21 30L21 29L27 29L27 30L28 30L28 32L27 32L27 31L25 31L25 30L24 30L24 31L23 31L23 33L25 33L25 32L27 32L27 33L29 33L29 32L30 32L30 33L31 33L31 32L33 32L33 29L32 29L32 28L33 28L33 27L32 27L32 28L31 28L31 27L30 27L30 26L31 26L31 25L32 25L32 26L33 26L33 24L32 24L32 23L33 23L33 21L32 21L32 20L33 20L33 17L32 17L32 20L31 20L31 19L29 19L29 18L31 18L31 17L27 17L27 16L26 16L26 15L25 15L25 16L24 16L24 15L23 15L23 14L24 14L24 13L25 13L25 14L28 14L28 15L29 15L29 16L31 16L31 15L30 15L30 14L31 14L31 13L32 13L32 14L33 14L33 13L32 13L32 12L31 12L31 11L33 11L33 8L32 8L32 9L27 9L27 8L26 8L26 11L25 11L25 10L23 10L23 9L22 9L22 10L20 10L20 7L21 7L21 6L22 6L22 8L23 8L23 6L24 6L24 7L25 7L25 6L24 6L24 4L25 4L25 3L24 3L24 2L23 2L23 3L24 3L24 4L23 4L23 5L22 5L22 2L21 2L21 5L20 5L20 7L19 7L19 4L18 4L18 3L20 3L20 1L19 1L19 0L17 0L17 1L16 1L16 3L17 3L17 4L18 4L18 7L19 7L19 10L18 10L18 8L17 8L17 10L15 10L15 2L13 2L13 1L15 1L15 0L13 0L13 1L12 1L12 0ZM12 2L12 4L14 4L14 3L13 3L13 2ZM17 2L17 3L18 3L18 2ZM10 5L10 6L9 6L9 7L10 7L10 9L9 9L9 10L7 10L7 11L6 11L6 12L7 12L7 13L5 13L5 12L4 12L4 14L7 14L7 15L5 15L5 16L4 16L4 15L3 15L3 14L2 14L2 15L1 15L1 16L4 16L4 17L3 17L3 18L4 18L4 19L3 19L3 20L4 20L4 21L5 21L5 22L4 22L4 23L5 23L5 22L7 22L7 21L5 21L5 20L4 20L4 19L6 19L6 20L7 20L7 19L8 19L8 20L9 20L9 22L10 22L10 23L9 23L9 24L10 24L10 25L11 25L11 26L13 26L13 25L11 25L11 24L10 24L10 23L11 23L11 22L12 22L12 23L13 23L13 22L12 22L12 21L13 21L13 19L12 19L12 18L17 18L17 17L18 17L18 18L19 18L19 17L18 17L18 16L19 16L19 15L18 15L18 14L19 14L19 12L18 12L18 13L17 13L17 14L16 14L16 15L15 15L15 16L13 16L13 17L12 17L12 18L11 18L11 16L12 16L12 15L14 15L14 14L15 14L15 13L16 13L16 12L17 12L17 11L16 11L16 12L15 12L15 13L13 13L13 12L14 12L14 9L12 9L12 6L13 6L13 8L14 8L14 6L13 6L13 5L12 5L12 6L11 6L11 5ZM10 6L10 7L11 7L11 6ZM16 6L16 7L17 7L17 6ZM24 8L24 9L25 9L25 8ZM10 9L10 10L9 10L9 11L10 11L10 10L11 10L11 9ZM12 10L12 11L13 11L13 10ZM19 10L19 11L20 11L20 10ZM27 10L27 11L26 11L26 12L25 12L25 11L23 11L23 12L22 12L22 11L21 11L21 12L22 12L22 13L20 13L20 15L21 15L21 16L20 16L20 17L22 17L22 16L23 16L23 15L22 15L22 14L23 14L23 13L24 13L24 12L25 12L25 13L26 13L26 12L28 12L28 14L29 14L29 12L30 12L30 11L31 11L31 10L29 10L29 12L28 12L28 10ZM7 11L7 12L8 12L8 11ZM9 12L9 14L8 14L8 13L7 13L7 14L8 14L8 15L9 15L9 14L11 14L11 12ZM12 13L12 14L13 14L13 13ZM16 15L16 16L17 16L17 15ZM6 16L6 17L4 17L4 18L6 18L6 19L7 19L7 18L6 18L6 17L8 17L8 16ZM9 16L9 17L10 17L10 16ZM24 17L24 19L23 19L23 20L22 20L22 18L20 18L20 19L14 19L14 25L15 25L15 20L16 20L16 21L19 21L19 20L22 20L22 21L23 21L23 22L18 22L18 23L19 23L19 24L18 24L18 25L19 25L19 24L22 24L22 25L20 25L20 27L19 27L19 26L18 26L18 27L17 27L17 28L18 28L18 29L21 29L21 28L22 28L22 27L23 27L23 26L24 26L24 24L25 24L25 23L24 23L24 24L23 24L23 22L26 22L26 23L27 23L27 24L29 24L29 26L30 26L30 21L29 21L29 19L26 19L26 17ZM9 18L9 20L10 20L10 22L11 22L11 21L12 21L12 19L11 19L11 18ZM10 19L10 20L11 20L11 19ZM25 19L25 20L23 20L23 21L25 21L25 20L26 20L26 19ZM26 21L26 22L27 22L27 23L29 23L29 21ZM31 21L31 22L32 22L32 21ZM6 23L6 24L7 24L7 23ZM16 23L16 25L17 25L17 23ZM25 25L25 28L28 28L28 25ZM21 26L21 27L20 27L20 28L21 28L21 27L22 27L22 26ZM26 26L26 27L27 27L27 26ZM29 28L29 29L28 29L28 30L30 30L30 31L31 31L31 30L30 30L30 28ZM10 29L10 30L11 30L11 29ZM12 30L12 31L13 31L13 32L14 32L14 31L15 31L15 30ZM0 0L0 7L7 7L7 0ZM1 1L1 6L6 6L6 1ZM2 2L2 5L5 5L5 2ZM26 0L26 7L33 7L33 0ZM27 1L27 6L32 6L32 1ZM28 2L28 5L31 5L31 2ZM0 26L0 33L7 33L7 26ZM1 27L1 32L6 32L6 27ZM2 28L2 31L5 31L5 28Z" fill="#000000"/></g></g></svg>
