<?xml version="1.0" encoding="UTF-8"?>
<svg xmlns="http://www.w3.org/2000/svg" version="1.1" width="100" height="100" viewBox="0 0 100 100"><rect x="0" y="0" width="100" height="100" fill="#ffffff"/><g transform="scale(3.448)"><g transform="translate(0,0)"><path fill-rule="evenodd" d="M9 0L9 1L8 1L8 2L9 2L9 3L8 3L8 4L10 4L10 7L11 7L11 4L12 4L12 5L13 5L13 6L12 6L12 9L14 9L14 11L16 11L16 10L17 10L17 8L16 8L16 7L17 7L17 6L18 6L18 7L19 7L19 6L18 6L18 5L20 5L20 3L21 3L21 0L19 0L19 1L18 1L18 3L17 3L17 2L16 2L16 1L15 1L15 0L13 0L13 1L11 1L11 2L10 2L10 0ZM13 1L13 2L12 2L12 4L13 4L13 3L15 3L15 1ZM19 1L19 2L20 2L20 1ZM10 3L10 4L11 4L11 3ZM14 4L14 5L16 5L16 6L15 6L15 7L16 7L16 6L17 6L17 4ZM8 5L8 7L9 7L9 5ZM13 6L13 8L14 8L14 9L15 9L15 10L16 10L16 8L14 8L14 6ZM20 6L20 7L21 7L21 6ZM0 8L0 9L1 9L1 11L0 11L0 14L1 14L1 15L2 15L2 16L1 16L1 17L0 17L0 21L1 21L1 17L2 17L2 19L3 19L3 21L5 21L5 19L7 19L7 20L6 20L6 21L7 21L7 20L8 20L8 23L9 23L9 24L8 24L8 29L9 29L9 28L11 28L11 29L12 29L12 27L13 27L13 26L11 26L11 27L10 27L10 25L11 25L11 24L10 24L10 22L9 22L9 21L12 21L12 22L13 22L13 23L12 23L12 25L13 25L13 24L14 24L14 25L15 25L15 27L14 27L14 28L17 28L17 27L18 27L18 28L21 28L21 29L22 29L22 28L21 28L21 25L25 25L25 26L22 26L22 27L23 27L23 29L24 29L24 27L25 27L25 28L26 28L26 29L27 29L27 28L28 28L28 26L29 26L29 25L27 25L27 24L26 24L26 23L27 23L27 22L29 22L29 20L28 20L28 19L27 19L27 16L28 16L28 15L27 15L27 12L28 12L28 11L27 11L27 12L25 12L25 13L21 13L21 12L22 12L22 11L23 11L23 12L24 12L24 11L25 11L25 9L26 9L26 8L25 8L25 9L24 9L24 8L23 8L23 9L22 9L22 8L20 8L20 9L19 9L19 10L20 10L20 9L21 9L21 12L20 12L20 13L19 13L19 14L20 14L20 13L21 13L21 14L22 14L22 16L23 16L23 15L24 15L24 16L25 16L25 13L26 13L26 15L27 15L27 16L26 16L26 17L22 17L22 18L20 18L20 17L21 17L21 16L20 16L20 17L19 17L19 18L18 18L18 17L17 17L17 13L16 13L16 14L14 14L14 13L12 13L12 11L13 11L13 10L11 10L11 11L10 11L10 9L11 9L11 8L6 8L6 9L9 9L9 10L8 10L8 11L9 11L9 12L8 12L8 13L7 13L7 12L6 12L6 11L7 11L7 10L6 10L6 11L3 11L3 13L7 13L7 14L5 14L5 15L7 15L7 16L3 16L3 15L4 15L4 14L3 14L3 15L2 15L2 14L1 14L1 13L2 13L2 10L5 10L5 8ZM27 8L27 9L28 9L28 10L29 10L29 9L28 9L28 8ZM23 10L23 11L24 11L24 10ZM10 12L10 13L11 13L11 14L8 14L8 15L9 15L9 17L10 17L10 18L9 18L9 19L8 19L8 17L5 17L5 18L4 18L4 17L3 17L3 16L2 16L2 17L3 17L3 19L5 19L5 18L7 18L7 19L8 19L8 20L11 20L11 19L10 19L10 18L13 18L13 19L12 19L12 21L17 21L17 22L16 22L16 23L14 23L14 24L16 24L16 25L17 25L17 26L16 26L16 27L17 27L17 26L18 26L18 27L20 27L20 23L19 23L19 21L17 21L17 20L18 20L18 18L17 18L17 19L16 19L16 20L14 20L14 19L15 19L15 18L16 18L16 17L14 17L14 16L16 16L16 15L14 15L14 16L13 16L13 17L12 17L12 15L13 15L13 14L12 14L12 13L11 13L11 12ZM28 13L28 14L29 14L29 13ZM10 15L10 16L11 16L11 15ZM18 15L18 16L19 16L19 15ZM28 17L28 18L29 18L29 17ZM19 18L19 20L22 20L22 19L23 19L23 20L24 20L24 19L25 19L25 21L26 21L26 20L27 20L27 19L25 19L25 18L24 18L24 19L23 19L23 18L22 18L22 19L20 19L20 18ZM21 21L21 24L24 24L24 21ZM22 22L22 23L23 23L23 22ZM18 23L18 24L19 24L19 23ZM28 23L28 24L29 24L29 23ZM25 24L25 25L26 25L26 24ZM18 25L18 26L19 26L19 25ZM25 26L25 27L26 27L26 28L27 28L27 26ZM0 0L0 7L7 7L7 0ZM1 1L1 6L6 6L6 1ZM2 2L2 5L5 5L5 2ZM22 0L22 7L29 7L29 0ZM23 1L23 6L28 6L28 1ZM24 2L24 5L27 5L27 2ZM0 22L0 29L7 29L7 22ZM1 23L1 28L6 28L6 23ZM2 24L2 27L5 27L5 24Z" fill="#000000"/></g></g></svg>
